<svg width="2919" height="562" viewBox="0 0 2919 562" fill="none" xmlns="http://www.w3.org/2000/svg">
<rect y="349.383" width="495.795" height="135.036" rx="67.5182" transform="rotate(-44.8047 0 349.383)" fill="white"/>
<rect x="336.422" y="466.19" width="495.795" height="135.036" rx="67.5182" transform="rotate(-44.8047 336.422 466.19)" fill="white"/>
<rect x="221.74" y="357.545" width="336.422" height="135.036" rx="67.5182" transform="rotate(-44.8047 221.74 357.545)" fill="white"/>
<ellipse cx="95.3939" cy="348.412" rx="66.3939" ry="69.4118" fill="white"/>
<ellipse cx="687.394" cy="213.412" rx="66.3939" ry="69.4118" fill="white"/>
<path d="M930.582 426V135.091H1032.29C1052.55 135.091 1069.27 138.595 1082.43 145.602C1095.59 152.515 1105.39 161.843 1111.83 173.585C1118.27 185.233 1121.49 198.159 1121.49 212.364C1121.49 224.864 1119.27 235.186 1114.81 243.33C1110.46 251.473 1104.68 257.913 1097.49 262.648C1090.38 267.383 1082.67 270.886 1074.33 273.159V276C1083.23 276.568 1092.18 279.693 1101.18 285.375C1110.17 291.057 1117.7 299.201 1123.76 309.807C1129.82 320.413 1132.85 333.386 1132.85 348.727C1132.85 363.311 1129.54 376.426 1122.91 388.074C1116.28 399.722 1105.82 408.955 1091.52 415.773C1077.22 422.591 1058.61 426 1035.7 426H930.582ZM965.809 394.75H1035.7C1058.71 394.75 1075.04 390.299 1084.7 381.398C1094.45 372.402 1099.33 361.511 1099.33 348.727C1099.33 338.879 1096.82 329.788 1091.8 321.455C1086.78 313.027 1079.63 306.303 1070.35 301.284C1061.07 296.17 1050.09 293.614 1037.4 293.614H965.809V394.75ZM965.809 262.932H1031.15C1041.76 262.932 1051.32 260.848 1059.84 256.682C1068.46 252.515 1075.28 246.644 1080.3 239.068C1085.41 231.492 1087.97 222.591 1087.97 212.364C1087.97 199.58 1083.52 188.737 1074.62 179.835C1065.71 170.839 1051.6 166.341 1032.29 166.341H965.809V262.932ZM1203.72 135.091V426H1170.19V135.091H1203.72ZM1313.32 431.114C1299.49 431.114 1286.95 428.509 1275.68 423.301C1264.41 417.998 1255.46 410.375 1248.83 400.432C1242.2 390.394 1238.89 378.273 1238.89 364.068C1238.89 351.568 1241.35 341.436 1246.27 333.67C1251.2 325.811 1257.78 319.655 1266.02 315.205C1274.26 310.754 1283.35 307.439 1293.29 305.261C1303.33 302.989 1313.41 301.189 1323.55 299.864C1336.8 298.159 1347.55 296.881 1355.79 296.028C1364.12 295.081 1370.18 293.519 1373.97 291.341C1377.85 289.163 1379.8 285.375 1379.8 279.977V278.841C1379.8 264.826 1375.96 253.936 1368.29 246.17C1360.71 238.405 1349.21 234.523 1333.77 234.523C1317.77 234.523 1305.22 238.027 1296.13 245.034C1287.04 252.042 1280.65 259.523 1276.96 267.477L1245.14 256.114C1250.82 242.856 1258.39 232.534 1267.86 225.148C1277.43 217.667 1287.85 212.458 1299.11 209.523C1310.48 206.492 1321.65 204.977 1332.64 204.977C1339.64 204.977 1347.69 205.83 1356.78 207.534C1365.97 209.144 1374.82 212.506 1383.35 217.619C1391.96 222.733 1399.11 230.451 1404.8 240.773C1410.48 251.095 1413.32 264.92 1413.32 282.25V426H1379.8V396.455H1378.09C1375.82 401.189 1372.03 406.256 1366.73 411.653C1361.43 417.051 1354.37 421.644 1345.56 425.432C1336.76 429.22 1326.01 431.114 1313.32 431.114ZM1318.43 401C1331.69 401 1342.86 398.396 1351.96 393.188C1361.14 387.979 1368.05 381.256 1372.69 373.017C1377.43 364.778 1379.8 356.114 1379.8 347.023V316.341C1378.38 318.045 1375.25 319.608 1370.42 321.028C1365.69 322.354 1360.19 323.538 1353.94 324.58C1347.79 325.527 1341.78 326.379 1335.9 327.136C1330.13 327.799 1325.44 328.367 1321.84 328.841C1313.13 329.977 1304.99 331.824 1297.41 334.381C1289.93 336.843 1283.87 340.583 1279.23 345.602C1274.68 350.527 1272.41 357.25 1272.41 365.773C1272.41 377.42 1276.72 386.227 1285.34 392.193C1294.05 398.064 1305.08 401 1318.43 401ZM1492.03 294.75V426H1458.51V207.818H1490.89V241.909H1493.73C1498.85 230.83 1506.61 221.928 1517.03 215.205C1527.44 208.386 1540.89 204.977 1557.37 204.977C1572.14 204.977 1585.07 208.008 1596.15 214.068C1607.23 220.034 1615.84 229.125 1622 241.341C1628.15 253.462 1631.23 268.803 1631.23 287.364V426H1597.71V289.636C1597.71 272.496 1593.26 259.144 1584.36 249.58C1575.46 239.92 1563.24 235.091 1547.71 235.091C1537.01 235.091 1527.44 237.411 1519.02 242.051C1510.68 246.691 1504.1 253.462 1499.27 262.364C1494.44 271.265 1492.03 282.061 1492.03 294.75ZM1707.74 346.455L1707.17 304.977H1713.99L1809.44 207.818H1850.92L1749.22 310.659H1746.38L1707.74 346.455ZM1676.49 426V135.091H1710.01V426H1676.49ZM1815.13 426L1729.9 318.045L1753.76 294.75L1857.74 426H1815.13ZM2032.61 256.682L2002.5 265.205C2000.61 260.186 1997.81 255.309 1994.12 250.574C1990.52 245.744 1985.6 241.767 1979.35 238.642C1973.1 235.517 1965.09 233.955 1955.34 233.955C1941.99 233.955 1930.86 237.032 1921.96 243.188C1913.15 249.248 1908.75 256.966 1908.75 266.341C1908.75 274.674 1911.78 281.256 1917.84 286.085C1923.9 290.915 1933.37 294.939 1946.25 298.159L1978.64 306.114C1998.14 310.848 2012.68 318.093 2022.24 327.847C2031.81 337.506 2036.59 349.958 2036.59 365.205C2036.59 377.705 2032.99 388.879 2025.79 398.727C2018.69 408.576 2008.75 416.341 1995.97 422.023C1983.18 427.705 1968.31 430.545 1951.36 430.545C1929.11 430.545 1910.69 425.716 1896.11 416.057C1881.52 406.398 1872.29 392.288 1868.41 373.727L1900.23 365.773C1903.26 377.515 1908.99 386.322 1917.41 392.193C1925.94 398.064 1937.06 401 1950.79 401C1966.42 401 1978.83 397.686 1988.01 391.057C1997.29 384.333 2001.93 376.284 2001.93 366.909C2001.93 359.333 1999.28 352.989 1993.98 347.875C1988.67 342.667 1980.53 338.784 1969.54 336.227L1933.18 327.705C1913.2 322.97 1898.52 315.631 1889.15 305.688C1879.87 295.65 1875.23 283.102 1875.23 268.045C1875.23 255.735 1878.68 244.845 1885.6 235.375C1892.6 225.905 1902.12 218.472 1914.15 213.074C1926.27 207.676 1940 204.977 1955.34 204.977C1976.93 204.977 1993.88 209.712 2006.19 219.182C2018.6 228.652 2027.4 241.152 2032.61 256.682ZM2071.05 507.818V207.818H2103.44V242.477H2107.42C2109.88 238.689 2113.29 233.86 2117.64 227.989C2122.09 222.023 2128.44 216.72 2136.68 212.08C2145.01 207.345 2156.28 204.977 2170.48 204.977C2188.85 204.977 2205.05 209.57 2219.06 218.756C2233.08 227.941 2244.02 240.962 2251.88 257.818C2259.74 274.674 2263.67 294.561 2263.67 317.477C2263.67 340.583 2259.74 360.612 2251.88 377.562C2244.02 394.419 2233.13 407.487 2219.21 416.767C2205.28 425.953 2189.23 430.545 2171.05 430.545C2157.04 430.545 2145.82 428.225 2137.39 423.585C2128.96 418.85 2122.47 413.5 2117.93 407.534C2113.38 401.473 2109.88 396.455 2107.42 392.477H2104.57V507.818H2071.05ZM2104.01 316.909C2104.01 333.386 2106.42 347.922 2111.25 360.517C2116.08 373.017 2123.14 382.818 2132.42 389.92C2141.7 396.928 2153.06 400.432 2166.51 400.432C2180.52 400.432 2192.22 396.739 2201.59 389.352C2211.06 381.871 2218.16 371.833 2222.9 359.239C2227.73 346.549 2230.14 332.439 2230.14 316.909C2230.14 301.568 2227.78 287.742 2223.04 275.432C2218.4 263.027 2211.35 253.225 2201.88 246.028C2192.5 238.737 2180.71 235.091 2166.51 235.091C2152.87 235.091 2141.41 238.547 2132.13 245.46C2122.85 252.278 2115.84 261.843 2111.11 274.153C2106.37 286.369 2104.01 300.621 2104.01 316.909ZM2363.01 431.114C2349.18 431.114 2336.63 428.509 2325.36 423.301C2314.1 417.998 2305.15 410.375 2298.52 400.432C2291.89 390.394 2288.57 378.273 2288.57 364.068C2288.57 351.568 2291.04 341.436 2295.96 333.67C2300.89 325.811 2307.47 319.655 2315.71 315.205C2323.94 310.754 2333.03 307.439 2342.98 305.261C2353.02 302.989 2363.1 301.189 2373.23 299.864C2386.49 298.159 2397.24 296.881 2405.48 296.028C2413.81 295.081 2419.87 293.519 2423.66 291.341C2427.54 289.163 2429.48 285.375 2429.48 279.977V278.841C2429.48 264.826 2425.65 253.936 2417.98 246.17C2410.4 238.405 2398.9 234.523 2383.46 234.523C2367.46 234.523 2354.91 238.027 2345.82 245.034C2336.73 252.042 2330.34 259.523 2326.64 267.477L2294.82 256.114C2300.51 242.856 2308.08 232.534 2317.55 225.148C2327.12 217.667 2337.53 212.458 2348.8 209.523C2360.17 206.492 2371.34 204.977 2382.32 204.977C2389.33 204.977 2397.38 205.83 2406.47 207.534C2415.66 209.144 2424.51 212.506 2433.03 217.619C2441.65 222.733 2448.8 230.451 2454.48 240.773C2460.17 251.095 2463.01 264.92 2463.01 282.25V426H2429.48V396.455H2427.78C2425.51 401.189 2421.72 406.256 2416.42 411.653C2411.11 417.051 2404.06 421.644 2395.25 425.432C2386.44 429.22 2375.7 431.114 2363.01 431.114ZM2368.12 401C2381.38 401 2392.55 398.396 2401.64 393.188C2410.83 387.979 2417.74 381.256 2422.38 373.017C2427.12 364.778 2429.48 356.114 2429.48 347.023V316.341C2428.06 318.045 2424.94 319.608 2420.11 321.028C2415.37 322.354 2409.88 323.538 2403.63 324.58C2397.48 325.527 2391.46 326.379 2385.59 327.136C2379.82 327.799 2375.13 328.367 2371.53 328.841C2362.82 329.977 2354.67 331.824 2347.1 334.381C2339.62 336.843 2333.56 340.583 2328.92 345.602C2324.37 350.527 2322.1 357.25 2322.1 365.773C2322.1 377.42 2326.41 386.227 2335.02 392.193C2343.74 398.064 2354.77 401 2368.12 401ZM2596.83 430.545C2576.37 430.545 2558.76 425.716 2543.99 416.057C2529.22 406.398 2517.85 393.093 2509.9 376.142C2501.94 359.191 2497.97 339.826 2497.97 318.045C2497.97 295.886 2502.04 276.331 2510.18 259.381C2518.42 242.335 2529.88 229.03 2544.56 219.466C2559.33 209.807 2576.56 204.977 2596.26 204.977C2611.6 204.977 2625.43 207.818 2637.74 213.5C2650.05 219.182 2660.13 227.136 2667.99 237.364C2675.85 247.591 2680.73 259.523 2682.62 273.159H2649.1C2646.54 263.216 2640.86 254.409 2632.06 246.739C2623.34 238.973 2611.6 235.091 2596.83 235.091C2583.76 235.091 2572.3 238.5 2562.45 245.318C2552.7 252.042 2545.08 261.559 2539.58 273.869C2534.19 286.085 2531.49 300.432 2531.49 316.909C2531.49 333.765 2534.14 348.443 2539.44 360.943C2544.84 373.443 2552.42 383.15 2562.17 390.062C2572.02 396.975 2583.57 400.432 2596.83 400.432C2605.54 400.432 2613.45 398.917 2620.55 395.886C2627.65 392.856 2633.67 388.5 2638.59 382.818C2643.51 377.136 2647.02 370.318 2649.1 362.364H2682.62C2680.73 375.242 2676.04 386.843 2668.56 397.165C2661.18 407.392 2651.37 415.536 2639.16 421.597C2627.04 427.562 2612.93 430.545 2596.83 430.545ZM2807.11 430.545C2786.08 430.545 2767.95 425.905 2752.7 416.625C2737.55 407.25 2725.86 394.182 2717.62 377.42C2709.47 360.564 2705.4 340.962 2705.4 318.614C2705.4 296.265 2709.47 276.568 2717.62 259.523C2725.86 242.383 2737.32 229.03 2751.99 219.466C2766.77 209.807 2784 204.977 2803.7 204.977C2815.06 204.977 2826.28 206.871 2837.36 210.659C2848.44 214.447 2858.53 220.602 2867.62 229.125C2876.71 237.553 2883.95 248.727 2889.35 262.648C2894.75 276.568 2897.45 293.708 2897.45 314.068V328.273H2729.27V299.295H2863.36C2863.36 286.985 2860.9 276 2855.97 266.341C2851.14 256.682 2844.23 249.059 2835.23 243.472C2826.33 237.884 2815.82 235.091 2803.7 235.091C2790.35 235.091 2778.79 238.405 2769.04 245.034C2759.38 251.568 2751.95 260.091 2746.74 270.602C2741.53 281.114 2738.93 292.383 2738.93 304.409V323.727C2738.93 340.205 2741.77 354.172 2747.45 365.631C2753.22 376.994 2761.23 385.659 2771.45 391.625C2781.68 397.496 2793.57 400.432 2807.11 400.432C2815.91 400.432 2823.87 399.201 2830.97 396.739C2838.17 394.182 2844.37 390.394 2849.58 385.375C2854.79 380.261 2858.81 373.917 2861.65 366.341L2894.04 375.432C2890.63 386.417 2884.9 396.076 2876.85 404.409C2868.8 412.648 2858.86 419.087 2847.02 423.727C2835.18 428.273 2821.88 430.545 2807.11 430.545Z" fill="white"/>
</svg>
